<svg width="50" height="72" viewBox="0 0 50 72" fill="none" xmlns="http://www.w3.org/2000/svg">
<path d="M33.6713 39.7145L34.7064 40.3355L34.4136 39.1644L31.9883 29.463L39.6125 22.8784L40.4886 22.1218L39.3372 22.0027L29.2739 20.9616L25.4605 11.948L24.9913 10.839L24.537 11.9542L20.726 21.3084L10.6799 22.0012L9.46848 22.0847L10.3875 22.8784L18.0117 29.463L15.5864 39.1644L15.2936 40.3355L16.3287 39.7145L25 34.5117L33.6713 39.7145ZM25 70.6729C24.8247 70.4725 24.5908 70.2031 24.3055 69.87C23.6247 69.0752 22.6512 67.9183 21.4827 66.4715C19.1453 63.5776 16.0295 59.527 12.9148 54.8994C9.79907 50.2703 6.69052 45.0729 4.36243 39.8846C2.03126 34.6894 0.5 29.5411 0.5 25C0.5 11.3476 11.3476 0.5 25 0.5C38.6524 0.5 49.5 11.3476 49.5 25C49.5 29.5411 47.9687 34.6894 45.6376 39.8846C43.3095 45.0729 40.2009 50.2703 37.0852 54.8994C33.9705 59.527 30.8547 63.5776 28.5173 66.4715C27.3488 67.9183 26.3753 69.0752 25.6945 69.87C25.4092 70.2031 25.1753 70.4725 25 70.6729Z" fill="#F4CE14" stroke="black"/>
</svg>
